<?xml version="1.0" standalone="no"?>
<!DOCTYPE svg PUBLIC "-//W3C//DTD SVG 20010904//EN"
 "http://www.w3.org/TR/2001/REC-SVG-20010904/DTD/svg10.dtd">
<svg version="1.0" xmlns="http://www.w3.org/2000/svg"
 width="1291.000000pt" height="1283.000000pt" viewBox="0 0 1291.000000 1283.000000"
 preserveAspectRatio="xMidYMid meet">

<g transform="translate(0.000000,1283.000000) scale(0.100000,-0.100000)"
fill="#000000" stroke="none">
<path d="M7520 12784 c-267 -50 -455 -117 -643 -230 -353 -213 -686 -614 -937
-1129 -176 -360 -313 -764 -457 -1347 -31 -126 -59 -228 -63 -228 -3 0 -18 43
-33 95 -62 223 -194 504 -315 675 -37 52 -119 147 -182 210 -222 224 -448 340
-722 372 -173 20 -336 -14 -531 -113 -288 -146 -478 -303 -648 -539 -172 -238
-274 -472 -336 -773 -24 -119 -27 -153 -27 -337 0 -203 1 -206 36 -340 20 -74
47 -165 61 -202 13 -37 23 -69 20 -71 -2 -2 -47 11 -101 29 -272 92 -493 96
-818 14 -274 -70 -560 -192 -757 -324 -455 -305 -841 -804 -951 -1230 -74
-282 -72 -554 5 -865 62 -252 142 -434 287 -651 420 -632 1007 -961 1987
-1114 403 -64 984 -117 1600 -147 345 -16 1682 -23 2145 -10 1653 46 2910 189
3969 452 367 91 750 227 1119 397 392 181 671 368 953 639 204 197 353 401
480 658 79 160 127 302 166 484 25 114 27 146 28 336 0 229 -9 303 -67 530
-86 336 -258 639 -491 862 -209 200 -465 325 -750 367 -247 37 -573 7 -809
-73 -175 -60 -380 -173 -567 -314 -94 -70 -291 -257 -385 -366 -25 -30 -49
-51 -52 -49 -3 3 13 50 34 104 328 830 454 1548 376 2142 -31 240 -94 444
-214 687 -121 247 -239 413 -445 624 -379 389 -860 650 -1390 752 -87 17 -156
22 -330 24 -121 2 -231 1 -245 -1z m440 -155 c486 -57 1018 -325 1388 -699
368 -371 582 -802 638 -1282 20 -172 15 -502 -11 -698 -56 -434 -228 -1009
-460 -1535 -114 -258 -175 -420 -175 -463 0 -93 97 -136 167 -74 17 15 84 92
149 172 385 475 511 601 771 771 197 129 377 204 583 245 133 25 424 31 551 9
400 -67 731 -328 938 -742 141 -283 222 -688 192 -958 -36 -318 -133 -585
-312 -860 -94 -143 -170 -235 -311 -371 -352 -338 -724 -555 -1378 -801 -663
-249 -1782 -458 -2990 -557 -1986 -164 -4449 -113 -5557 114 -598 123 -1019
330 -1346 663 -243 247 -428 556 -517 862 -61 213 -74 304 -74 505 0 167 3
197 27 303 32 136 61 215 118 329 215 428 611 830 1015 1031 311 156 679 249
913 233 164 -11 262 -38 509 -141 75 -31 111 -30 130 5 20 39 9 110 -46 280
-80 248 -87 289 -86 490 0 151 4 193 28 305 65 308 169 534 361 781 201 257
582 488 840 510 241 20 508 -88 725 -293 258 -242 415 -543 536 -1028 52 -206
66 -240 105 -260 39 -20 62 -19 94 7 37 29 48 57 95 264 241 1046 466 1629
822 2127 204 285 422 483 670 608 290 146 550 189 898 148z"/>
<path d="M8540 11875 c-22 -27 -1 -46 96 -88 355 -154 575 -477 664 -977 32
-177 39 -537 15 -752 -42 -380 -127 -721 -267 -1068 -103 -255 -100 -246 -86
-275 13 -28 45 -41 78 -30 26 8 63 82 140 274 144 364 239 734 276 1082 20
193 15 579 -11 739 -59 378 -186 655 -394 861 -107 107 -201 168 -322 210
-107 38 -171 46 -189 24z"/>
<path d="M1575 8200 c-122 -26 -219 -61 -350 -128 -371 -189 -631 -529 -722
-944 -25 -117 -25 -409 0 -525 65 -295 215 -563 434 -774 152 -147 227 -185
273 -139 42 42 25 71 -104 175 -245 197 -406 461 -473 778 -24 113 -24 352 0
466 56 263 159 454 347 641 190 190 379 296 664 375 126 34 166 49 166 63 0
37 -95 41 -235 12z"/>
<path d="M10479 4648 c-24 -27 -263 -437 -322 -552 -42 -83 -55 -155 -28 -164
27 -9 128 119 266 338 151 240 194 315 195 343 0 25 -36 57 -66 57 -14 0 -35
-10 -45 -22z"/>
<path d="M9366 4538 c-28 -38 -52 -78 -318 -536 -221 -381 -293 -516 -328
-621 -24 -71 -23 -94 4 -72 60 50 671 1071 712 1190 7 22 11 47 8 56 -11 26
-51 17 -78 -17z"/>
<path d="M7674 4315 c-78 -54 -566 -895 -987 -1700 -140 -269 -196 -389 -238
-518 -34 -105 -35 -117 -9 -117 35 0 185 248 560 925 107 194 434 764 585
1020 137 233 175 309 175 351 0 52 -42 71 -86 39z"/>
<path d="M4925 4103 c-96 -125 -464 -685 -627 -955 -168 -281 -289 -542 -313
-679 -5 -28 -3 -38 10 -43 32 -12 112 99 256 355 105 187 196 335 504 814 224
350 295 471 295 506 0 37 -19 59 -50 59 -25 0 -38 -10 -75 -57z"/>
<path d="M2403 4013 c-79 -87 -370 -555 -670 -1078 -311 -544 -398 -709 -443
-844 -36 -106 -38 -131 -11 -131 26 0 86 84 191 270 332 581 633 1088 810
1361 165 253 219 347 227 392 12 75 -47 91 -104 30z"/>
<path d="M10800 3418 c-18 -24 -147 -274 -288 -555 -245 -491 -257 -515 -257
-570 0 -52 2 -58 22 -61 29 -4 83 46 131 121 133 211 486 905 504 990 16 74 0
110 -49 115 -28 3 -36 -3 -63 -40z"/>
<path d="M9620 3083 c-32 -34 -98 -127 -156 -223 -56 -91 -177 -284 -269 -430
-182 -287 -548 -894 -637 -1055 -71 -129 -115 -242 -101 -256 27 -27 147 143
519 736 195 312 392 619 597 934 166 255 201 351 130 351 -20 0 -42 -16 -83
-57z"/>
<path d="M3026 3077 c-105 -112 -683 -1170 -741 -1358 -31 -99 -6 -115 62 -41
90 96 153 200 593 986 194 346 207 374 188 414 -20 42 -62 42 -102 -1z"/>
<path d="M5727 2850 c-65 -71 -175 -264 -461 -808 -405 -770 -527 -1022 -600
-1230 -34 -98 -37 -122 -16 -122 20 0 164 237 292 480 74 140 196 370 270 510
308 583 539 1030 569 1101 18 42 29 84 26 93 -11 27 -43 18 -80 -24z"/>
<path d="M7627 2076 c-70 -69 -513 -716 -724 -1056 -287 -464 -416 -703 -484
-898 -33 -96 -31 -121 7 -108 39 13 186 232 479 711 145 236 299 476 637 991
180 273 198 304 198 336 0 30 -28 58 -58 58 -12 0 -36 -15 -55 -34z"/>
<path d="M3589 1713 c-29 -33 -61 -81 -194 -298 -54 -88 -157 -257 -230 -375
-239 -389 -274 -448 -334 -562 -74 -140 -104 -215 -90 -224 28 -17 98 79 358
495 306 487 538 874 552 921 21 70 -15 95 -62 43z"/>
</g>
</svg>
