<?xml version="1.0" standalone="no"?>
<!DOCTYPE svg PUBLIC "-//W3C//DTD SVG 20010904//EN"
 "http://www.w3.org/TR/2001/REC-SVG-20010904/DTD/svg10.dtd">
<svg version="1.0" xmlns="http://www.w3.org/2000/svg"
 width="1291.000000pt" height="1175.000000pt" viewBox="0 0 1291.000000 1175.000000"
 preserveAspectRatio="xMidYMid meet">

<g transform="translate(0.000000,1175.000000) scale(0.100000,-0.100000)"
fill="#000000" stroke="none">
<path d="M7520 11704 c-267 -50 -455 -117 -643 -230 -353 -213 -686 -614 -937
-1129 -176 -360 -313 -764 -457 -1347 -31 -126 -59 -228 -63 -228 -3 0 -18 43
-33 95 -62 223 -194 504 -315 675 -37 52 -119 147 -182 210 -222 224 -448 340
-722 372 -173 20 -336 -14 -531 -113 -288 -146 -478 -303 -648 -539 -172 -238
-274 -472 -336 -773 -24 -119 -27 -153 -27 -337 0 -203 1 -206 36 -340 20 -74
47 -165 61 -202 13 -37 23 -69 20 -71 -2 -2 -47 11 -101 29 -272 92 -493 96
-818 14 -274 -70 -560 -192 -757 -324 -455 -305 -841 -804 -951 -1230 -74
-282 -72 -554 5 -865 62 -252 142 -434 287 -651 420 -632 1007 -961 1987
-1114 403 -64 984 -117 1600 -147 345 -16 1682 -23 2145 -10 1212 33 2249 123
3080 267 694 119 1232 260 1675 439 600 242 939 448 1286 782 204 197 353 401
480 658 79 160 127 302 166 484 25 114 27 146 28 336 0 229 -9 303 -67 530
-86 336 -258 639 -491 862 -209 200 -465 325 -750 367 -247 37 -573 7 -809
-73 -175 -60 -380 -173 -567 -314 -94 -70 -291 -257 -385 -366 -25 -30 -49
-51 -52 -49 -3 3 13 50 34 104 328 830 454 1548 376 2142 -31 240 -94 444
-214 687 -121 247 -239 413 -445 624 -379 389 -860 650 -1390 752 -87 17 -156
22 -330 24 -121 2 -231 1 -245 -1z m440 -155 c486 -57 1018 -325 1388 -699
368 -371 582 -802 638 -1282 20 -172 15 -502 -11 -698 -56 -434 -228 -1009
-460 -1535 -114 -258 -175 -420 -175 -463 0 -93 97 -136 167 -74 17 15 84 92
149 172 385 475 511 601 771 771 197 129 377 204 583 245 133 25 424 31 551 9
400 -67 731 -328 938 -742 141 -283 222 -688 192 -958 -36 -318 -133 -585
-312 -860 -94 -143 -170 -235 -311 -371 -352 -338 -724 -555 -1378 -801 -663
-249 -1782 -458 -2990 -557 -1986 -164 -4449 -113 -5557 114 -598 123 -1019
330 -1346 663 -243 247 -428 556 -517 862 -61 213 -74 304 -74 505 0 167 3
197 27 303 32 136 61 215 118 329 215 428 611 830 1015 1031 311 156 679 249
913 233 164 -11 262 -38 509 -141 75 -31 111 -30 130 5 20 39 9 110 -46 280
-80 248 -87 289 -86 490 0 151 4 193 28 305 65 308 169 534 361 781 201 257
582 488 840 510 241 20 508 -88 725 -293 258 -242 415 -543 536 -1028 52 -206
66 -240 105 -260 39 -20 62 -19 94 7 37 29 48 57 95 264 241 1046 466 1629
822 2127 204 285 422 483 670 608 290 146 550 189 898 148z"/>
<path d="M8540 10795 c-22 -27 -1 -46 96 -88 357 -154 574 -475 665 -982 22
-117 24 -159 24 -420 0 -220 -5 -319 -18 -410 -24 -171 -64 -387 -89 -480 -35
-135 -134 -423 -193 -565 -31 -74 -61 -148 -65 -163 -17 -55 26 -99 80 -82 26
8 63 82 140 274 144 364 239 734 276 1082 20 193 15 579 -11 739 -59 378 -186
655 -394 861 -107 107 -201 168 -322 210 -107 38 -171 46 -189 24z"/>
<path d="M1575 7120 c-122 -26 -219 -61 -350 -128 -371 -189 -631 -529 -722
-944 -25 -117 -25 -409 0 -525 65 -295 215 -563 434 -774 152 -147 227 -185
273 -139 42 42 25 71 -104 175 -245 197 -406 461 -473 778 -24 113 -24 352 0
466 56 263 159 454 347 641 190 190 379 296 664 375 126 34 166 49 166 63 0
37 -95 41 -235 12z"/>
<path d="M10380 3534 c-50 -42 -168 -230 -326 -519 -188 -344 -848 -1513
-1139 -2015 -340 -588 -352 -610 -385 -692 -60 -152 -38 -199 52 -111 60 59
125 153 305 443 241 387 564 943 970 1665 518 921 633 1140 633 1200 0 58 -56
74 -110 29z"/>
<path d="M7758 3185 c-42 -23 -113 -126 -275 -402 -411 -701 -730 -1325 -783
-1539 -25 -98 10 -111 87 -31 73 76 113 140 283 457 174 324 208 386 513 925
122 214 231 414 244 445 30 73 30 124 1 144 -27 19 -35 19 -70 1z"/>
<path d="M2333 3169 c-27 -10 -74 -73 -115 -154 -89 -175 -462 -1095 -515
-1268 -31 -105 2 -147 70 -87 49 43 100 147 291 593 92 213 194 450 228 525
69 156 118 294 118 332 0 47 -36 74 -77 59z"/>
<path d="M4087 2911 c-72 -64 -190 -308 -444 -916 -381 -915 -544 -1374 -555
-1565 -3 -40 0 -45 19 -48 48 -7 106 115 391 813 295 722 453 1102 563 1352
134 304 146 344 111 376 -26 24 -47 21 -85 -12z"/>
<path d="M5873 2820 c-52 -22 -133 -145 -133 -203 0 -70 55 -127 122 -127 105
0 226 115 203 192 -4 13 -19 39 -34 58 -14 19 -28 46 -31 60 -5 22 -10 25 -55
27 -28 1 -60 -2 -72 -7z m88 -138 c11 -28 -12 -67 -52 -88 -87 -44 -107 23
-32 107 35 38 36 39 56 22 10 -10 23 -28 28 -41z"/>
<path d="M8481 2604 c-144 -72 -238 -248 -202 -380 37 -136 198 -209 307 -138
136 88 197 330 119 470 -25 43 -35 53 -72 62 -64 18 -94 15 -152 -14z m144
-54 c31 -34 33 -174 5 -253 -28 -76 -53 -113 -90 -132 -60 -31 -134 -6 -166
56 -20 41 -15 139 11 189 45 90 132 160 196 160 14 0 34 -9 44 -20z"/>
<path d="M3098 2410 c-78 -24 -134 -107 -126 -184 7 -55 32 -90 84 -116 84
-41 173 -15 195 58 15 52 -6 96 -73 157 -54 48 -53 50 27 57 19 2 30 9 30 18
0 11 -14 15 -55 17 -30 1 -67 -2 -82 -7z m27 -142 c27 -32 35 -50 33 -73 -2
-25 -8 -31 -31 -33 -35 -4 -75 21 -87 54 -12 30 11 94 34 94 8 0 31 -19 51
-42z"/>
<path d="M6015 1680 c-45 -19 -85 -77 -360 -540 -429 -720 -543 -946 -491
-966 9 -3 23 -1 31 6 40 33 147 194 386 582 143 232 300 484 347 558 135 214
182 292 182 307 0 18 -45 63 -62 62 -7 0 -22 -4 -33 -9z"/>
<path d="M7627 1070 c-45 -35 -67 -90 -67 -165 0 -76 15 -117 59 -168 114
-129 359 -54 338 105 -10 73 -99 155 -194 179 -35 9 -42 16 -45 38 -4 35 -52
41 -91 11z m119 -181 c19 -11 39 -29 44 -40 9 -16 6 -20 -16 -25 -22 -6 -32
-2 -51 20 -21 25 -32 66 -17 66 4 0 22 -9 40 -21z"/>
<path d="M4170 992 c-68 -34 -110 -172 -74 -247 47 -100 203 -102 264 -3 36
59 20 136 -40 196 -80 80 -91 84 -150 54z m78 -132 c26 -39 27 -53 6 -75 -20
-19 -53 -16 -67 6 -13 20 10 111 27 106 6 -2 21 -18 34 -37z"/>
</g>
</svg>
