<?xml version="1.0" standalone="no"?>
<!DOCTYPE svg PUBLIC "-//W3C//DTD SVG 20010904//EN"
 "http://www.w3.org/TR/2001/REC-SVG-20010904/DTD/svg10.dtd">
<svg version="1.0" xmlns="http://www.w3.org/2000/svg"
 width="1508.000000pt" height="1406.000000pt" viewBox="0 0 1508.000000 1406.000000"
 preserveAspectRatio="xMidYMid meet">

<g transform="translate(0.000000,1406.000000) scale(0.100000,-0.100000)"
fill="#000000" stroke="none">
<path d="M5472 13988 c-19 -19 -15 -52 22 -172 19 -61 69 -228 111 -371 195
-663 462 -1547 516 -1712 59 -181 85 -233 107 -219 33 20 9 123 -174 756 -228
786 -495 1693 -505 1713 -11 20 -59 23 -77 5z"/>
<path d="M8605 13510 c-19 -21 -52 -175 -121 -570 -19 -113 -66 -376 -104
-585 -174 -961 -179 -1002 -127 -982 20 7 67 207 157 662 39 198 113 572 165
830 121 606 123 620 100 645 -23 25 -47 25 -70 0z"/>
<path d="M11603 13375 c-22 -16 -152 -201 -482 -690 -100 -148 -225 -333 -278
-410 -220 -320 -765 -1140 -841 -1265 -83 -135 -98 -182 -66 -194 9 -4 27 0
39 8 50 33 526 691 1010 1396 44 63 227 326 407 584 290 415 328 473 328 507
0 63 -66 100 -117 64z"/>
<path d="M2807 13083 c-16 -15 -5 -62 24 -109 51 -79 184 -248 805 -1026 742
-927 871 -1085 964 -1180 78 -80 100 -93 100 -58 0 27 -51 106 -163 255 -167
220 -889 1146 -1202 1540 -39 50 -131 167 -205 260 -147 187 -205 253 -264
296 -41 30 -48 33 -59 22z"/>
<path d="M14405 11690 c-11 -4 -97 -70 -191 -147 -95 -76 -338 -272 -540 -435
-203 -163 -432 -348 -509 -410 -77 -63 -266 -215 -420 -338 -758 -608 -1197
-978 -1211 -1022 -10 -34 11 -44 51 -25 81 38 414 294 1110 852 248 198 736
590 1085 869 349 280 652 525 673 544 42 41 47 72 17 102 -22 22 -34 23 -65
10z"/>
<path d="M842 11034 c-22 -15 -29 -48 -14 -70 10 -17 129 -91 592 -374 228
-139 537 -327 685 -418 685 -418 1246 -749 1340 -791 100 -44 114 -15 27 52
-144 112 -982 636 -2317 1452 -137 84 -259 156 -270 159 -12 3 -30 -1 -43 -10z"/>
<path d="M7240 10984 c-630 -46 -1248 -232 -1779 -538 -154 -88 -306 -209
-531 -420 -36 -33 -131 -120 -210 -193 -221 -201 -358 -362 -515 -603 -488
-748 -682 -1583 -569 -2450 84 -654 353 -1280 779 -1815 529 -665 1317 -1160
2172 -1366 479 -115 1007 -142 1512 -78 619 78 1289 341 1796 705 248 177 544
452 728 674 457 550 729 1191 819 1930 20 160 16 653 -6 810 -31 224 -91 505
-141 655 -124 374 -253 642 -448 935 -646 969 -1675 1589 -2882 1735 -125 16
-602 28 -725 19z m518 -154 c1353 -95 2538 -851 3150 -2010 705 -1337 462
-2965 -608 -4064 -526 -540 -1213 -911 -1963 -1060 -297 -59 -417 -70 -772
-71 -344 0 -413 5 -683 51 -646 108 -1265 386 -1781 797 -155 124 -457 425
-570 568 -443 564 -695 1163 -777 1849 -21 175 -24 540 -5 710 90 832 433
1552 1033 2170 225 232 764 577 1183 757 553 238 1186 345 1793 303z"/>
<path d="M10451 8336 c-10 -11 -5 -36 24 -123 131 -394 168 -650 145 -988 -61
-918 -381 -1636 -1011 -2275 -138 -140 -345 -302 -539 -422 -118 -74 -370
-191 -545 -254 -88 -32 -164 -61 -169 -66 -18 -15 49 -8 128 12 465 122 978
425 1356 801 446 444 748 1042 862 1704 30 173 32 573 5 760 -53 362 -90 537
-145 696 -54 156 -80 192 -111 155z"/>
<path d="M14580 8164 c-77 -17 -530 -109 -1145 -234 -242 -48 -485 -98 -540
-110 -458 -98 -668 -147 -727 -171 -15 -6 -30 -20 -33 -31 -10 -29 13 -48 59
-48 87 0 548 87 1251 235 161 34 380 80 935 195 310 64 317 66 335 94 27 41
-7 89 -60 85 -5 0 -39 -7 -75 -15z"/>
<path d="M3015 7153 c-73 -3 -394 -33 -625 -58 -662 -71 -844 -91 -1180 -130
-69 -8 -262 -31 -430 -50 -355 -41 -539 -63 -629 -75 -76 -11 -107 -34 -97
-74 11 -44 37 -50 155 -36 329 37 1338 161 1801 220 571 74 950 129 1083 157
62 13 77 20 77 35 0 15 -7 18 -42 16 -24 -1 -74 -3 -113 -5z"/>
<path d="M11901 5946 c-19 -23 18 -52 96 -75 314 -93 776 -218 1198 -326 165
-42 332 -85 370 -95 119 -31 635 -164 1107 -284 141 -37 271 -66 287 -66 20 0
36 8 50 27 24 29 20 58 -9 84 -25 22 -48 28 -1280 334 -1050 261 -1710 415
-1774 415 -19 0 -39 -6 -45 -14z"/>
<path d="M3525 4351 c-165 -76 -1227 -755 -2275 -1454 -646 -431 -649 -433
-656 -464 -11 -41 10 -73 47 -73 41 0 36 -3 612 367 1031 663 2203 1453 2319
1564 65 62 36 99 -47 60z"/>
<path d="M10940 4247 c0 -53 126 -204 680 -812 821 -902 2251 -2427 2314
-2469 41 -26 73 -21 96 16 11 18 20 38 20 44 0 18 -52 78 -234 276 -93 101
-300 325 -460 498 -541 585 -1181 1270 -1416 1515 -53 55 -188 196 -301 314
-300 315 -537 553 -597 600 -61 47 -102 54 -102 18z"/>
<path d="M5007 3398 c-80 -109 -523 -916 -1230 -2243 -279 -525 -286 -542
-232 -567 34 -15 64 1 91 50 11 20 54 98 95 172 42 74 102 185 134 245 32 61
113 211 180 335 335 617 893 1678 987 1878 53 112 59 155 21 160 -14 2 -29 -7
-46 -30z"/>
<path d="M9427 3233 c-19 -19 0 -77 68 -211 160 -316 676 -1218 1134 -1981
113 -190 234 -392 268 -450 33 -58 72 -112 85 -120 33 -19 76 -7 90 25 14 30
13 31 -169 354 -580 1028 -1266 2178 -1395 2341 -35 45 -64 60 -81 42z"/>
<path d="M6986 2972 c-28 -45 -60 -393 -110 -1192 -28 -445 -42 -680 -56 -985
-6 -116 -17 -293 -25 -395 -19 -246 -19 -324 1 -344 20 -20 68 -21 84 -1 15
18 25 114 40 390 5 110 21 344 35 520 81 1050 124 1972 93 2003 -14 14 -54 16
-62 4z"/>
</g>
</svg>
