<?xml version="1.0" standalone="no"?>
<!DOCTYPE svg PUBLIC "-//W3C//DTD SVG 20010904//EN"
 "http://www.w3.org/TR/2001/REC-SVG-20010904/DTD/svg10.dtd">
<svg version="1.0" xmlns="http://www.w3.org/2000/svg"
 width="1720.000000pt" height="1123.000000pt" viewBox="0 0 1720.000000 1123.000000"
 preserveAspectRatio="xMidYMid meet">

<g transform="translate(0.000000,1123.000000) scale(0.100000,-0.100000)"
fill="#000000" stroke="none">
<path d="M9995 11134 c-162 -17 -382 -74 -548 -140 -463 -186 -830 -490 -1176
-973 -445 -621 -755 -1398 -1031 -2581 -27 -117 -51 -214 -53 -216 -2 -2 -21
53 -41 124 -100 337 -272 693 -450 927 -307 405 -676 649 -1091 722 -134 23
-369 13 -491 -20 -116 -33 -246 -89 -387 -168 -377 -210 -607 -423 -840 -774
-333 -503 -485 -1197 -377 -1726 22 -107 74 -286 115 -395 14 -37 24 -68 23
-69 -2 -2 -61 17 -133 41 -323 107 -591 121 -941 49 -261 -55 -572 -163 -829
-290 -288 -142 -504 -298 -768 -555 -229 -222 -363 -386 -512 -625 -184 -295
-281 -541 -332 -844 -25 -151 -25 -522 0 -676 25 -145 90 -403 134 -529 72
-207 207 -460 356 -671 264 -371 583 -660 989 -894 321 -185 759 -336 1261
-436 1572 -312 4905 -351 7667 -89 799 75 1473 173 2135 310 926 191 1388 330
2036 614 668 294 1060 551 1490 980 220 219 359 401 514 675 174 307 275 601
326 953 18 125 21 177 16 352 -15 640 -249 1244 -660 1703 -184 205 -484 401
-761 497 -351 121 -841 126 -1271 13 -313 -82 -669 -278 -987 -544 -108 -90
-320 -304 -412 -416 -33 -40 -61 -71 -63 -69 -2 2 21 66 51 142 234 602 411
1244 475 1729 46 345 53 805 16 1075 -117 871 -590 1628 -1362 2178 -345 246
-746 431 -1163 537 -235 60 -365 76 -640 80 -135 1 -263 1 -285 -1z m416 -205
c667 -53 1337 -354 1876 -845 164 -149 352 -370 488 -574 253 -378 413 -826
454 -1270 14 -145 14 -507 1 -665 -41 -491 -176 -1055 -397 -1665 -79 -219
-121 -324 -301 -750 -148 -350 -168 -426 -135 -489 10 -19 30 -44 45 -54 36
-26 106 -27 146 -1 17 10 124 134 238 274 501 616 649 768 949 972 351 240
596 336 974 383 184 24 502 16 643 -14 278 -60 552 -204 758 -398 307 -289
533 -716 629 -1188 44 -216 54 -310 53 -490 -1 -437 -146 -887 -420 -1305
-123 -188 -226 -312 -398 -480 -310 -302 -627 -526 -1035 -730 -555 -279
-1170 -499 -1814 -649 -1041 -243 -2031 -387 -3370 -491 -1506 -116 -3495
-142 -4940 -65 -676 37 -1345 101 -1760 171 -304 51 -637 133 -880 217 -519
180 -977 493 -1296 887 -286 353 -439 650 -544 1055 -92 357 -99 689 -20 1013
90 372 346 795 700 1161 319 329 607 527 998 688 326 134 603 202 857 210 253
9 434 -29 712 -148 78 -33 163 -63 189 -66 44 -5 48 -4 62 23 39 77 31 143
-48 379 -103 307 -125 421 -125 660 0 439 140 898 386 1267 189 282 348 439
621 610 310 195 540 266 782 239 338 -36 635 -201 911 -507 138 -153 228 -289
336 -504 114 -230 176 -408 267 -770 54 -214 78 -273 122 -300 68 -42 146 -15
184 63 12 25 51 173 86 329 193 860 364 1428 583 1933 302 699 730 1270 1167
1558 125 82 361 197 492 240 260 84 484 109 774 86z"/>
<path d="M11308 9943 c-24 -6 -35 -51 -16 -69 8 -8 67 -36 132 -64 157 -65
268 -136 382 -244 291 -274 468 -683 536 -1241 20 -164 17 -640 -6 -830 -65
-556 -199 -1058 -425 -1587 -46 -109 -50 -144 -20 -182 22 -28 73 -35 111 -15
63 34 303 679 403 1084 111 449 152 805 142 1225 -8 360 -47 608 -138 885
-150 456 -402 780 -737 949 -117 59 -307 106 -364 89z"/>
<path d="M2185 5025 c-254 -41 -545 -163 -769 -323 -103 -74 -292 -255 -372
-357 -178 -229 -302 -504 -356 -793 -31 -166 -31 -454 1 -627 73 -401 281
-774 600 -1077 138 -131 238 -198 296 -198 35 0 48 5 64 26 29 37 27 83 -6
121 -16 17 -73 66 -128 109 -325 254 -540 593 -631 994 -106 468 0 957 289
1339 252 333 597 551 1075 681 126 34 172 54 172 74 0 41 -94 53 -235 31z"/>
</g>
</svg>
