<?xml version="1.0" standalone="no"?>
<!DOCTYPE svg PUBLIC "-//W3C//DTD SVG 20010904//EN"
 "http://www.w3.org/TR/2001/REC-SVG-20010904/DTD/svg10.dtd">
<svg version="1.0" xmlns="http://www.w3.org/2000/svg"
 width="1463.000000pt" height="1333.000000pt" viewBox="0 0 1463.000000 1333.000000"
 preserveAspectRatio="xMidYMid meet">

<g transform="translate(0.000000,1333.000000) scale(0.100000,-0.100000)"
fill="#000000" stroke="none">
<path d="M8579 13270 c-360 -38 -735 -200 -1024 -442 -382 -319 -709 -804
-960 -1421 -141 -347 -241 -669 -371 -1186 -40 -161 -75 -296 -78 -298 -3 -3
-10 15 -16 38 -6 24 -33 109 -59 189 -127 378 -287 652 -521 890 -281 287
-592 430 -932 430 -187 0 -300 -30 -500 -130 -352 -177 -574 -370 -790 -687
-256 -374 -404 -931 -359 -1348 13 -119 62 -320 110 -455 16 -46 29 -86 28
-87 -1 -1 -54 16 -117 37 -315 107 -570 112 -935 19 -267 -68 -546 -181 -766
-311 -317 -187 -664 -521 -883 -848 -222 -333 -314 -586 -347 -957 -32 -359
85 -857 286 -1211 295 -521 728 -907 1286 -1145 154 -66 484 -170 654 -207
251 -55 503 -95 890 -140 350 -42 450 -38 516 17 41 35 35 61 -21 95 -53 33
-90 40 -370 68 -584 60 -896 114 -1241 214 -325 95 -538 190 -782 349 -223
146 -389 296 -554 504 -221 278 -358 545 -439 857 -88 343 -94 627 -19 920
118 459 548 1017 1035 1340 203 135 446 246 703 321 429 125 707 112 1084 -52
57 -24 125 -47 151 -50 47 -5 49 -4 62 26 21 52 6 143 -54 330 -117 362 -130
564 -60 909 97 484 380 939 733 1181 116 79 274 168 374 209 259 108 572 75
841 -88 336 -203 593 -553 756 -1027 31 -90 120 -417 147 -541 3 -13 20 -39
38 -58 59 -62 143 -39 179 48 8 18 33 116 56 218 199 868 361 1372 596 1858
124 258 242 451 407 671 83 111 271 308 372 391 216 177 493 310 761 366 114
24 151 27 319 28 391 0 756 -94 1143 -294 330 -171 627 -410 868 -698 299
-358 475 -741 551 -1197 25 -156 25 -661 -1 -850 -77 -562 -257 -1151 -564
-1850 -107 -245 -162 -396 -162 -448 0 -54 26 -91 75 -107 64 -21 95 -2 203
128 53 65 173 209 266 322 323 391 556 592 886 767 260 138 555 201 890 190
248 -8 413 -49 600 -149 238 -127 390 -267 553 -510 188 -282 305 -633 337
-1015 51 -611 -265 -1297 -819 -1777 -294 -254 -532 -405 -922 -584 -589 -270
-980 -393 -1789 -562 -192 -40 -653 -122 -760 -136 -30 -3 -78 -15 -107 -26
-120 -44 -135 -94 -44 -140 76 -39 163 -37 427 7 315 52 778 147 1054 215 428
106 761 221 1205 417 506 223 839 443 1194 788 560 545 839 1295 731 1969 -47
295 -115 515 -225 732 -214 419 -497 696 -875 856 -189 80 -334 109 -586 115
-463 12 -806 -87 -1197 -347 -222 -147 -364 -271 -540 -468 -61 -69 -113 -120
-114 -115 -2 5 6 32 18 59 32 75 115 300 176 479 303 891 381 1674 228 2285
-182 724 -678 1352 -1385 1752 -309 176 -665 298 -1000 344 -135 18 -391 25
-501 14z"/>
<path d="M9696 12237 c-10 -7 -17 -22 -14 -33 3 -20 15 -27 172 -99 114 -52
197 -109 283 -193 221 -219 363 -532 429 -947 25 -159 30 -563 10 -765 -46
-449 -167 -922 -336 -1320 -83 -195 -88 -211 -67 -244 39 -59 102 -39 145 48
90 181 236 590 301 846 84 331 120 580 128 895 12 482 -50 831 -206 1161 -71
148 -153 266 -261 374 -142 143 -284 228 -449 271 -88 22 -111 23 -135 6z"/>
<path d="M1853 8069 c-34 -4 -105 -19 -158 -33 -686 -183 -1165 -796 -1165
-1491 0 -436 168 -831 495 -1160 122 -124 234 -205 282 -205 66 0 95 69 50
121 -12 14 -71 65 -130 114 -503 407 -684 1103 -437 1681 109 257 296 480 530
636 176 118 321 181 570 249 134 36 152 45 148 67 -6 29 -68 37 -185 21z"/>
<path d="M8465 7436 c-36 -16 -82 -65 -246 -261 -114 -137 -169 -204 -385
-465 -162 -196 -362 -450 -535 -680 -310 -411 -353 -483 -354 -595 0 -86 23
-137 84 -180 61 -43 158 -47 254 -11 100 38 326 171 822 486 335 213 435 273
442 267 6 -6 -10 -36 -147 -277 -45 -80 -113 -199 -150 -265 -37 -66 -141
-248 -230 -405 -381 -668 -477 -846 -698 -1285 -127 -252 -277 -535 -441 -830
-120 -215 -312 -571 -339 -627 -37 -79 -41 -133 -12 -171 25 -31 62 -41 106
-27 58 19 174 196 632 960 124 206 273 449 332 540 179 277 464 766 825 1415
531 957 625 1144 625 1251 0 100 -61 184 -146 202 -99 21 -157 -3 -498 -205
-116 -69 -225 -134 -242 -144 -18 -9 -126 -71 -240 -137 -274 -157 -345 -195
-350 -190 -2 3 60 92 137 199 276 379 343 474 489 693 204 307 265 405 327
525 69 134 70 185 6 219 -27 15 -31 15 -68 -2z"/>
<path d="M6412 7020 c-177 -118 -671 -749 -1159 -1480 -193 -289 -582 -932
-674 -1115 -51 -101 -62 -131 -66 -185 -4 -54 -1 -72 19 -110 39 -75 126 -117
216 -104 129 18 365 140 727 374 420 271 595 378 595 363 0 -4 -56 -114 -123
-243 -68 -129 -159 -302 -202 -385 -43 -82 -128 -242 -188 -355 -145 -274
-340 -669 -422 -860 -37 -85 -177 -378 -312 -650 -296 -598 -352 -718 -360
-764 -15 -91 67 -153 147 -111 57 30 235 330 570 960 73 138 180 330 237 428
264 455 770 1452 899 1774 125 312 123 447 -8 514 -75 38 -162 18 -309 -73
-281 -172 -613 -371 -734 -441 -142 -82 -393 -207 -414 -207 -8 0 -10 8 -5 23
14 47 196 349 475 790 52 81 186 292 298 470 113 177 354 545 536 817 181 272
339 514 349 537 15 35 17 45 6 58 -19 22 -32 19 -98 -25z"/>
<path d="M11162 3345 c-101 -94 -174 -217 -311 -526 -67 -152 -67 -209 -1
-209 36 0 72 40 181 205 87 132 116 187 218 411 55 121 55 174 1 174 -21 0
-45 -15 -88 -55z"/>
<path d="M2707 3298 c-34 -35 -119 -146 -188 -248 -197 -289 -229 -359 -176
-379 36 -14 87 14 156 86 125 130 352 517 337 576 -5 22 -12 27 -37 27 -25 0
-43 -13 -92 -62z"/>
<path d="M8538 3334 c-37 -20 -70 -71 -172 -265 -83 -161 -206 -466 -206 -513
0 -27 29 -56 56 -56 26 0 68 45 131 140 27 41 64 97 83 123 75 110 221 437
223 500 1 31 -4 44 -26 63 -32 27 -51 29 -89 8z"/>
<path d="M4186 2106 c-75 -79 -309 -475 -370 -627 -41 -103 -43 -119 -16 -144
32 -29 63 -12 134 74 85 101 174 250 286 477 96 193 110 235 90 259 -26 32
-69 18 -124 -39z"/>
<path d="M8877 1487 c-74 -78 -219 -446 -221 -560 -1 -40 3 -52 23 -68 29 -24
53 -24 75 -1 9 11 54 93 99 183 58 115 91 194 110 265 40 151 35 195 -26 210
-23 5 -33 1 -60 -29z"/>
<path d="M6881 926 c-77 -57 -224 -306 -376 -635 -80 -174 -83 -188 -55 -224
27 -34 59 -35 98 -2 41 34 233 325 302 459 68 130 126 273 136 333 13 83 -39
117 -105 69z"/>
</g>
</svg>
