<?xml version="1.0" standalone="no"?>
<!DOCTYPE svg PUBLIC "-//W3C//DTD SVG 20010904//EN"
 "http://www.w3.org/TR/2001/REC-SVG-20010904/DTD/svg10.dtd">
<svg version="1.0" xmlns="http://www.w3.org/2000/svg"
 width="1877.000000pt" height="1463.000000pt" viewBox="0 0 1877.000000 1463.000000"
 preserveAspectRatio="xMidYMid meet">

<g transform="translate(0.000000,1463.000000) scale(0.100000,-0.100000)"
fill="#000000" stroke="none">
<path d="M7500 14581 c-5 -11 -17 -129 -25 -263 -9 -134 -27 -403 -40 -598
-21 -294 -53 -846 -80 -1335 -3 -55 -5 -183 -6 -284 0 -147 3 -187 14 -199 17
-17 52 -8 61 14 26 68 104 1172 131 1844 6 150 13 280 35 629 9 143 8 167 -5
187 -20 30 -70 33 -85 5z"/>
<path d="M3660 14180 c-25 -25 -25 -36 -2 -80 28 -53 413 -725 510 -890 558
-949 837 -1404 929 -1518 25 -31 41 -42 57 -40 36 5 31 43 -20 146 -125 253
-596 1072 -1024 1782 -111 184 -235 390 -275 458 -40 68 -81 132 -91 143 -22
25 -59 24 -84 -1z"/>
<path d="M10507 14088 c-36 -58 -140 -250 -247 -453 -35 -66 -87 -163 -115
-215 -229 -415 -932 -1770 -960 -1849 -28 -79 11 -112 58 -48 69 93 633 1133
1102 2032 37 72 71 135 76 140 21 28 179 356 179 372 0 46 -69 61 -93 21z"/>
<path d="M13099 12412 c-68 -44 -205 -132 -304 -196 -99 -65 -220 -143 -268
-175 -136 -86 -1000 -662 -1297 -864 -575 -391 -711 -495 -697 -531 14 -37 80
-6 352 162 287 178 1141 733 1490 968 934 628 925 621 925 659 0 30 -25 55
-54 55 -13 0 -79 -35 -147 -78z"/>
<path d="M1517 12272 c-41 -45 -21 -72 125 -174 50 -35 226 -160 392 -279
1413 -1011 1589 -1133 1630 -1127 76 11 -2 77 -709 593 -187 136 -448 328
-580 425 -132 97 -298 218 -370 270 -71 51 -166 120 -209 153 -135 103 -219
157 -241 157 -12 0 -29 -8 -38 -18z"/>
<path d="M6620 11420 c-1275 -111 -2377 -824 -2937 -1900 -487 -936 -492
-2065 -14 -3019 140 -279 344 -577 529 -773 29 -31 49 -59 44 -62 -6 -3 -77
-29 -158 -57 -268 -92 -464 -182 -654 -301 -384 -239 -783 -640 -1023 -1029
-197 -320 -281 -541 -328 -867 -68 -467 52 -1067 302 -1514 184 -327 459 -658
724 -871 564 -454 1228 -690 2305 -821 905 -111 1648 -152 2935 -163 1382 -11
2508 31 3810 143 792 68 1516 167 2160 295 818 164 1300 298 1811 504 788 319
1223 584 1698 1035 277 264 548 663 691 1020 137 341 203 734 177 1053 -49
599 -258 1118 -619 1537 -245 286 -605 496 -987 576 -98 20 -161 26 -326 31
-315 9 -563 -24 -820 -109 -231 -77 -529 -245 -780 -438 -94 -73 -339 -311
-479 -465 -40 -44 -69 -71 -66 -60 4 11 42 112 85 225 248 659 398 1230 457
1745 26 228 26 745 0 930 -51 361 -150 671 -309 974 -446 849 -1292 1489
-2253 1705 -206 47 -341 60 -595 60 -212 -1 -248 -3 -370 -27 -366 -71 -718
-239 -1010 -481 -166 -137 -296 -279 -529 -575 l-27 -35 -38 63 c-145 238
-413 552 -646 755 -568 497 -1240 797 -2005 896 -184 24 -584 34 -755 20z
m685 -135 c813 -96 1524 -426 2094 -971 213 -204 488 -551 566 -715 l17 -36
-92 -152 c-200 -332 -370 -712 -529 -1187 -91 -272 -154 -494 -253 -899 -44
-181 -84 -339 -88 -350 -6 -15 -12 -3 -29 55 -221 755 -581 1260 -1101 1543
-92 50 -198 90 -325 123 -101 26 -125 28 -295 29 -172 0 -192 -2 -285 -28
-271 -75 -681 -320 -896 -536 -364 -366 -613 -870 -688 -1396 -54 -370 -32
-610 90 -979 27 -82 49 -153 49 -157 0 -4 -46 10 -103 31 -130 48 -304 87
-447 101 -129 13 -290 2 -465 -32 l-110 -21 -79 83 c-236 251 -440 557 -590
885 -442 964 -381 2051 168 2974 137 231 282 418 484 624 592 601 1384 960
2263 1025 157 12 488 5 644 -14z m5008 -691 c609 -67 1283 -399 1766 -868 493
-480 783 -1045 867 -1691 21 -157 24 -578 5 -760 -65 -656 -268 -1363 -636
-2215 -218 -506 -232 -555 -169 -629 37 -45 85 -57 140 -36 39 15 70 48 266
288 510 623 662 773 1006 994 386 247 734 342 1214 331 286 -7 438 -46 691
-175 251 -128 441 -304 624 -576 231 -344 376 -807 390 -1247 7 -231 -18 -425
-88 -667 -127 -440 -418 -896 -781 -1224 -370 -332 -679 -531 -1179 -758 -675
-305 -1243 -475 -2229 -667 -1036 -202 -2340 -338 -3775 -394 -1966 -77 -3669
-34 -5015 126 -946 112 -1561 314 -2074 682 -394 283 -762 759 -927 1198 -184
490 -217 953 -98 1368 165 575 736 1260 1335 1599 266 150 679 295 974 341
168 26 257 29 386 12 191 -25 324 -64 529 -154 50 -21 114 -45 143 -53 53 -13
54 -13 73 11 46 60 40 116 -41 366 -110 341 -138 503 -126 732 26 469 184 905
469 1292 178 241 419 436 733 593 236 118 408 148 631 112 261 -42 497 -167
725 -384 177 -168 304 -343 427 -590 119 -237 179 -410 279 -812 22 -86 48
-173 57 -194 38 -78 127 -99 190 -44 43 38 55 76 125 384 250 1115 514 1863
857 2428 318 525 621 845 1000 1056 390 216 742 280 1236 225z"/>
<path d="M4964 10104 c-337 -179 -705 -651 -893 -1146 -124 -326 -176 -617
-175 -978 2 -594 167 -1117 506 -1597 44 -62 89 -120 101 -128 63 -44 147 2
147 80 0 37 -8 52 -59 116 -217 273 -403 686 -480 1069 -39 196 -46 272 -45
510 0 189 5 263 23 380 73 481 247 879 544 1250 34 41 141 155 239 252 115
114 178 184 178 198 0 27 -26 26 -86 -6z"/>
<path d="M13050 9610 c-17 -31 6 -52 99 -91 205 -85 329 -166 458 -302 352
-373 527 -1001 485 -1744 -33 -596 -174 -1183 -423 -1765 -33 -75 -59 -148
-59 -161 0 -42 36 -77 79 -77 49 0 70 23 119 130 197 429 363 994 431 1475 43
302 52 722 21 995 -73 631 -327 1134 -704 1392 -136 93 -298 157 -417 165 -72
5 -78 4 -89 -17z"/>
<path d="M4075 4825 c-164 -30 -326 -85 -487 -166 -499 -250 -835 -688 -955
-1244 -24 -107 -27 -143 -27 -330 -1 -184 2 -225 23 -325 91 -445 321 -830
669 -1120 145 -122 206 -144 256 -94 58 59 34 95 -168 259 -256 206 -464 528
-551 849 -48 181 -59 261 -59 446 1 150 5 193 28 303 48 234 135 435 264 616
247 348 594 576 1072 706 74 20 145 43 158 51 27 18 28 40 3 54 -26 13 -139
11 -226 -5z"/>
<path d="M52 9904 c-28 -19 -29 -64 -3 -88 22 -20 110 -44 756 -201 264 -65
678 -166 920 -225 461 -113 541 -131 875 -204 277 -60 272 -60 295 -43 17 13
18 17 5 32 -8 9 -24 21 -37 26 -67 25 -655 185 -1043 284 -1169 297 -1720 435
-1732 435 -8 0 -24 -7 -36 -16z"/>
<path d="M2485 7634 c-186 -33 -562 -109 -870 -175 -77 -17 -201 -43 -275 -59
-74 -16 -297 -63 -495 -105 -198 -41 -393 -82 -433 -91 -85 -18 -114 -46 -94
-89 16 -35 54 -33 279 15 104 21 343 71 533 110 1355 280 1548 325 1564 367
17 44 -56 54 -209 27z"/>
<path d="M3159 6024 c-142 -98 -610 -467 -1254 -989 -99 -80 -265 -215 -370
-299 -104 -85 -257 -208 -340 -275 -82 -67 -259 -210 -393 -318 -134 -108
-248 -206 -254 -219 -14 -29 12 -74 43 -74 31 0 54 15 174 114 60 51 180 148
265 217 160 129 848 687 1260 1022 211 171 720 593 810 672 84 72 162 155 158
167 -9 25 -45 19 -99 -18z"/>
</g>
</svg>
