<?xml version="1.0" standalone="no"?>
<!DOCTYPE svg PUBLIC "-//W3C//DTD SVG 20010904//EN"
 "http://www.w3.org/TR/2001/REC-SVG-20010904/DTD/svg10.dtd">
<svg version="1.0" xmlns="http://www.w3.org/2000/svg"
 width="1712.000000pt" height="1497.000000pt" viewBox="0 0 1712.000000 1497.000000"
 preserveAspectRatio="xMidYMid meet">

<g transform="translate(0.000000,1497.000000) scale(0.100000,-0.100000)"
fill="#000000" stroke="none">
<path d="M9975 14840 c-408 -47 -843 -231 -1162 -492 -403 -329 -790 -870
-1053 -1473 -127 -291 -270 -689 -360 -1004 -50 -173 -179 -685 -211 -831 -12
-58 -26 -109 -30 -114 -4 -5 -17 25 -29 65 -159 551 -382 947 -709 1261 -306
294 -635 447 -1001 464 -215 11 -396 -34 -635 -156 -415 -211 -670 -436 -918
-806 -261 -392 -418 -910 -417 -1383 1 -224 35 -410 129 -688 l48 -141 -66 25
c-214 83 -394 117 -621 117 -234 -1 -436 -37 -737 -135 -541 -175 -902 -396
-1303 -798 -168 -168 -264 -283 -382 -456 -276 -405 -398 -730 -430 -1149 -34
-447 100 -1011 337 -1421 295 -509 685 -896 1182 -1173 434 -241 1008 -408
1743 -506 916 -122 1933 -176 3330 -176 2342 0 4392 161 5886 464 634 128 978
215 1369 343 440 144 1027 399 1353 587 517 299 981 715 1257 1131 262 394
400 747 467 1190 19 132 17 461 -6 605 -69 450 -199 809 -410 1129 -220 334
-465 553 -791 711 -151 73 -231 101 -375 133 -351 78 -804 57 -1162 -53 -214
-66 -397 -157 -641 -319 -268 -178 -480 -372 -736 -676 -42 -50 -42 -50 57
210 530 1400 629 2512 301 3380 -414 1097 -1470 1936 -2664 2116 -150 23 -485
33 -610 19z m583 -214 c239 -36 531 -120 767 -221 606 -258 1172 -749 1496
-1297 330 -557 447 -1136 379 -1878 -56 -607 -275 -1380 -617 -2180 -250 -583
-265 -649 -164 -717 19 -13 47 -23 63 -23 64 0 95 28 271 244 397 489 550 663
695 792 251 224 574 425 825 513 339 119 785 152 1108 81 169 -37 372 -123
529 -224 351 -227 652 -663 791 -1146 129 -450 140 -824 34 -1238 -114 -453
-396 -924 -760 -1271 -369 -351 -744 -596 -1290 -841 -491 -220 -894 -360
-1400 -486 -1417 -352 -3016 -542 -5170 -614 -1912 -64 -3774 1 -4910 170
-1011 151 -1666 440 -2165 956 -237 246 -444 547 -559 817 -158 368 -238 784
-211 1102 28 339 114 592 309 914 192 317 462 623 765 867 384 310 980 556
1466 604 241 25 533 -31 789 -151 95 -44 193 -73 221 -64 35 11 53 102 35 187
-4 18 -37 128 -75 243 -97 296 -114 394 -114 625 0 543 200 1078 565 1514 98
117 203 209 359 315 385 261 648 339 956 286 428 -75 841 -409 1112 -900 126
-229 213 -463 307 -827 67 -259 88 -315 129 -341 37 -24 107 -22 141 5 42 33
59 86 125 381 192 857 366 1429 592 1952 155 358 372 725 608 1027 92 118 328
351 440 435 290 216 639 362 966 403 100 13 472 4 592 -14z"/>
<path d="M11260 13635 c-16 -19 -5 -49 23 -63 12 -6 73 -33 135 -61 137 -60
200 -97 301 -178 146 -116 269 -278 372 -488 127 -261 199 -536 230 -884 15
-172 7 -610 -15 -791 -61 -501 -187 -988 -371 -1430 -94 -226 -98 -238 -91
-264 15 -62 81 -84 131 -44 30 23 51 67 143 294 291 718 432 1476 394 2111 -7
109 -21 259 -32 333 -99 672 -406 1178 -844 1390 -164 80 -342 115 -376 75z"/>
<path d="M2090 8719 c-202 -40 -455 -145 -636 -265 -814 -536 -1057 -1593
-561 -2437 118 -200 305 -416 481 -555 137 -109 186 -124 238 -72 25 26 29 36
24 62 -8 41 -21 55 -136 146 -121 97 -206 178 -285 272 -441 529 -529 1252
-224 1839 84 163 176 287 309 421 255 255 506 389 960 515 107 29 135 47 119
76 -8 17 -21 19 -102 18 -51 0 -135 -9 -187 -20z"/>
<path d="M13687 4196 c-22 -8 -58 -32 -80 -54 -23 -22 -63 -61 -89 -86 -72
-70 -101 -133 -106 -236 -3 -69 0 -95 17 -141 30 -79 88 -141 169 -181 62 -31
74 -33 167 -33 92 0 106 3 168 32 89 43 169 119 210 202 26 54 33 80 35 146 5
104 -20 174 -88 248 -72 78 -146 110 -270 114 -65 2 -107 -1 -133 -11z m252
-179 c122 -81 101 -270 -38 -354 -91 -55 -181 -56 -264 -3 -113 72 -121 233
-17 338 24 24 42 32 69 33 20 0 45 5 56 10 11 5 50 7 86 6 53 -2 75 -8 108
-30z"/>
<path d="M11082 3810 c-35 -15 -185 -173 -215 -228 -59 -108 -71 -242 -31
-341 24 -61 102 -127 169 -142 127 -28 272 57 353 208 105 198 68 421 -83 492
-48 22 -149 28 -193 11z m137 -179 c92 -92 -10 -350 -145 -368 -33 -4 -43 -1
-64 22 -23 24 -25 34 -25 118 0 80 4 99 27 142 43 83 65 96 166 103 12 1 31
-7 41 -17z"/>
<path d="M6633 3450 c-28 -11 -147 -110 -186 -153 -70 -78 -113 -207 -105
-316 9 -125 70 -221 173 -272 58 -28 71 -31 142 -28 99 5 173 40 249 116 95
97 141 224 131 358 -7 87 -33 151 -89 211 -61 67 -124 94 -218 93 -41 0 -85
-4 -97 -9z m193 -193 c124 -135 4 -417 -178 -417 -94 0 -152 75 -152 195 -1
56 5 83 28 131 50 111 93 136 220 129 43 -2 54 -8 82 -38z"/>
<path d="M3145 3363 c-64 -67 -89 -123 -93 -210 -9 -164 91 -293 228 -293 63
0 106 17 149 61 67 66 93 176 67 278 -35 139 -120 211 -247 211 -57 0 -60 -1
-104 -47z m189 -147 c14 -18 21 -46 24 -89 5 -101 -42 -152 -109 -117 -31 17
-62 89 -62 145 0 65 15 92 56 104 37 10 60 -1 91 -43z"/>
<path d="M8328 1926 c-68 -18 -95 -40 -109 -87 -7 -23 -24 -48 -37 -57 -33
-21 -72 -107 -72 -158 0 -193 242 -354 479 -317 228 35 349 200 284 389 -21
63 -108 151 -185 187 -113 53 -257 71 -360 43z m273 -181 c26 -9 63 -30 83
-48 158 -140 -29 -290 -269 -216 -53 16 -78 31 -116 69 -53 53 -68 98 -50 152
10 31 14 33 58 34 27 0 73 8 103 17 61 18 117 16 191 -8z"/>
<path d="M4639 1358 c-85 -15 -175 -103 -204 -200 -58 -198 43 -422 234 -515
48 -24 68 -28 141 -28 77 0 90 3 140 31 104 58 160 164 160 299 0 166 -99 337
-236 408 -33 17 -149 19 -235 5z m96 -128 c4 -6 27 -21 53 -34 102 -52 161
-146 162 -255 0 -178 -159 -230 -284 -91 -115 128 -111 324 8 376 38 16 53 17
61 4z"/>
<path d="M6705 710 c-12 -4 -46 -35 -77 -68 -72 -79 -93 -135 -93 -257 0 -112
21 -176 78 -241 94 -107 205 -112 292 -12 143 162 92 480 -90 564 -53 25 -77
28 -110 14z m70 -184 c55 -55 72 -225 28 -284 -27 -36 -44 -38 -76 -7 -53 54
-77 192 -48 278 11 32 17 37 42 37 18 0 39 -9 54 -24z"/>
</g>
</svg>
